<svg width="32" height="17" viewBox="0 0 32 17" fill="none" xmlns="http://www.w3.org/2000/svg">
<path d="M25.3333 0.669334H22.6667C21.196 0.669334 20 1.86533 20 3.336V7.336H12V3.336C12 1.86533 10.804 0.669334 9.33333 0.669334H6.66667C5.196 0.669334 4 1.86533 4 3.336V14.0027C4 15.4733 5.196 16.6693 6.66667 16.6693H9.33333C10.804 16.6693 12 15.4733 12 14.0027V10.0027H20V14.0027C20 15.4733 21.196 16.6693 22.6667 16.6693H25.3333C26.804 16.6693 28 15.4733 28 14.0027V3.336C28 1.86533 26.804 0.669334 25.3333 0.669334ZM6.66667 14.0027V3.336H9.33333L9.33467 14.0027H6.66667ZM22.6667 14.0027V3.336H25.3333L25.3347 14.0027H22.6667ZM29.3333 6.00267H32V11.336H29.3333V6.00267ZM0 6.00267H2.66667V11.336H0V6.00267Z" fill="#00A32F"/>
</svg>
